<?xml version="1.0" encoding="UTF-8" standalone="no"?>
<!-- Created with Inkscape (http://www.inkscape.org/) -->

<svg
   xmlns:dc="http://purl.org/dc/elements/1.1/"
   xmlns:cc="http://creativecommons.org/ns#"
   xmlns:rdf="http://www.w3.org/1999/02/22-rdf-syntax-ns#"
   xmlns:svg="http://www.w3.org/2000/svg"
   xmlns="http://www.w3.org/2000/svg"
   xmlns:sodipodi="http://sodipodi.sourceforge.net/DTD/sodipodi-0.dtd"
   xmlns:inkscape="http://www.inkscape.org/namespaces/inkscape"
   width="185.12022mm"
   height="83.268372mm"
   viewBox="0 0 655.9378 295.04541"
   id="svg2"
   version="1.1"
   inkscape:version="0.91 r"
   sodipodi:docname="logo-module-lafabriqueainnovation.svg"
   inkscape:export-filename="/home/david/simplon/projet-de-module/logo-module-lafabriqueainnovation.png"
   inkscape:export-xdpi="300"
   inkscape:export-ydpi="300">
  <defs
     id="defs4">
    <clipPath
       clipPathUnits="userSpaceOnUse"
       id="clipPath6997">
      <path
         inkscape:connector-curvature="0"
         d="m 350.37141,2121.9567 56.86649,0 c 8.81409,0 15.90991,7.0958 15.90991,15.9099 l 0,56.8667 c 0,8.8141 -7.09582,15.9099 -15.90991,15.9099 l -56.86649,0 c -8.81409,0 -15.90991,-7.0958 -15.90991,-15.9099 l 0,-56.8667 c 0,-8.8141 7.09582,-15.9099 15.90991,-15.9099 z m -4.94975,-6.0105 68.1802,0 c 8.81408,0 15.9099,7.0958 15.9099,15.9099 l 0,68.1802 c 0,8.8141 -7.09582,15.9099 -15.9099,15.9099 l -68.1802,0 c -8.81409,0 -15.9099,-7.0958 -15.9099,-15.9099 l 0,-68.1802 c 0,-8.8141 7.09581,-15.9099 15.9099,-15.9099 z"
         style="opacity:1;fill:#916f6f;fill-opacity:0.99038463;fill-rule:evenodd;stroke:#241c1c;stroke-width:1.81299996;stroke-linecap:round;stroke-linejoin:round;stroke-miterlimit:4;stroke-dasharray:none;stroke-dashoffset:0;stroke-opacity:1"
         id="path6999" />
    </clipPath>
    <clipPath
       clipPathUnits="userSpaceOnUse"
       id="clipPath7629">
      <path
         inkscape:connector-curvature="0"
         d="m 552.23058,55.863062 55.85385,0 c 8.65714,0 15.6266,6.96944 15.6266,15.62659 l 0,55.854058 c 0,8.65715 -6.96946,15.62659 -15.6266,15.62659 l -55.85385,0 c -8.65714,0 -15.6266,-6.96944 -15.6266,-15.62659 l 0,-55.854058 c 0,-8.65715 6.96946,-15.62659 15.6266,-15.62659 z m -4.86161,-5.90347 66.9661,0 c 8.65713,0 15.62659,6.96944 15.62659,15.62659 l 0,66.966098 c 0,8.65715 -6.96946,15.62659 -15.62659,15.62659 l -66.9661,0 c -8.65714,0 -15.62659,-6.96944 -15.62659,-15.62659 l 0,-66.966098 c 0,-8.65715 6.96945,-15.62659 15.62659,-15.62659 z"
         style="opacity:1;fill:#862525;fill-opacity:1;fill-rule:evenodd;stroke:#241c1c;stroke-width:1.81299996;stroke-linecap:round;stroke-linejoin:round;stroke-miterlimit:4;stroke-dasharray:none;stroke-dashoffset:0;stroke-opacity:1"
         id="path7631" />
    </clipPath>
    <clipPath
       clipPathUnits="userSpaceOnUse"
       id="clipPath7633">
      <path
         inkscape:connector-curvature="0"
         d="M 584.47358,362.5071 219.73473,253.72278 C 163.20156,236.86161 104.03504,268.53225 87.074227,324.73344 L -22.353241,687.33137 C -39.31405,743.53256 -7.4561293,802.35148 49.077043,819.21264 L 413.8159,927.99696 c 56.53317,16.86117 115.69969,-14.80947 132.6605,-71.01066 L 655.90387,494.38838 C 672.86468,438.18719 641.00676,379.36827 584.47358,362.5071 Z M 627.78694,333.65124 190.48246,203.22403 C 133.94936,186.36288 74.782831,218.03352 57.822022,274.23471 L -73.375796,708.97068 c -16.960809,56.20119 14.897112,115.02011 71.4302187,131.88126 L 435.3589,971.27915 c 56.53317,16.86116 115.69963,-14.80949 132.66044,-71.01068 L 699.21715,465.5325 C 716.17796,409.33131 684.32011,350.51241 627.78694,333.65124 Z"
         style="opacity:1;fill:#862525;fill-opacity:1;fill-rule:evenodd;stroke:#241c1c;stroke-width:1.81299984;stroke-linecap:round;stroke-linejoin:round;stroke-miterlimit:4;stroke-dasharray:none;stroke-dashoffset:0;stroke-opacity:1"
         id="path7635" />
    </clipPath>
    <clipPath
       clipPathUnits="userSpaceOnUse"
       id="clipPath7670">
      <path
         id="path7672"
         style="opacity:1;fill:#6f9171;fill-opacity:0.99038463;fill-rule:evenodd;stroke:#241c1c;stroke-width:1.81299996;stroke-linecap:round;stroke-linejoin:round;stroke-miterlimit:4;stroke-dasharray:none;stroke-dashoffset:0;stroke-opacity:1"
         d="m 438.18859,55.863062 55.85385,0 c 8.65714,0 15.6266,6.96944 15.6266,15.62659 l 0,55.854058 c 0,8.65715 -6.96946,15.62659 -15.6266,15.62659 l -55.85385,0 c -8.65714,0 -15.6266,-6.96944 -15.6266,-15.62659 l 0,-55.854058 c 0,-8.65715 6.96946,-15.62659 15.6266,-15.62659 z m -4.86161,-5.90347 66.9661,0 c 8.65713,0 15.62659,6.96944 15.62659,15.62659 l 0,66.966098 c 0,8.65715 -6.96946,15.62659 -15.62659,15.62659 l -66.9661,0 c -8.65714,0 -15.62659,-6.96944 -15.62659,-15.62659 l 0,-66.966098 c 0,-8.65715 6.96945,-15.62659 15.62659,-15.62659 z"
         inkscape:connector-curvature="0" />
    </clipPath>
    <clipPath
       clipPathUnits="userSpaceOnUse"
       id="clipPath7684">
      <path
         inkscape:connector-curvature="0"
         d="m 316.92875,55.863062 55.85385,0 c 8.65714,0 15.6266,6.96944 15.6266,15.62659 l 0,55.854058 c 0,8.65715 -6.96946,15.62659 -15.6266,15.62659 l -55.85385,0 c -8.65714,0 -15.6266,-6.96944 -15.6266,-15.62659 l 0,-55.854058 c 0,-8.65715 6.96946,-15.62659 15.6266,-15.62659 z m -4.86161,-5.90347 66.9661,0 c 8.65713,0 15.62659,6.96944 15.62659,15.62659 l 0,66.966098 c 0,8.65715 -6.96946,15.62659 -15.62659,15.62659 l -66.9661,0 c -8.65714,0 -15.62659,-6.96944 -15.62659,-15.62659 l 0,-66.966098 c 0,-8.65715 6.96945,-15.62659 15.62659,-15.62659 z"
         style="opacity:1;fill:#fff557;fill-opacity:0.99038463;fill-rule:evenodd;stroke:#241c1c;stroke-width:1.81299996;stroke-linecap:round;stroke-linejoin:round;stroke-miterlimit:4;stroke-dasharray:none;stroke-dashoffset:0;stroke-opacity:1"
         id="path7686" />
    </clipPath>
    <clipPath
       clipPathUnits="userSpaceOnUse"
       id="clipPath7698">
      <path
         id="path7700"
         style="opacity:1;fill:#716f91;fill-opacity:0.99038463;fill-rule:evenodd;stroke:#241c1c;stroke-width:1.81299996;stroke-linecap:round;stroke-linejoin:round;stroke-miterlimit:4;stroke-dasharray:none;stroke-dashoffset:0;stroke-opacity:1"
         d="m 198.55605,55.863062 55.85385,0 c 8.65714,0 15.6266,6.96944 15.6266,15.62659 l 0,55.854058 c 0,8.65715 -6.96946,15.62659 -15.6266,15.62659 l -55.85385,0 c -8.65714,0 -15.6266,-6.96944 -15.6266,-15.62659 l 0,-55.854058 c 0,-8.65715 6.96946,-15.62659 15.6266,-15.62659 z m -4.86161,-5.90347 66.9661,0 c 8.65713,0 15.62659,6.96944 15.62659,15.62659 l 0,66.966098 c 0,8.65715 -6.96946,15.62659 -15.62659,15.62659 l -66.9661,0 c -8.65714,0 -15.62659,-6.96944 -15.62659,-15.62659 l 0,-66.966098 c 0,-8.65715 6.96945,-15.62659 15.62659,-15.62659 z"
         inkscape:connector-curvature="0" />
    </clipPath>
  </defs>
  <sodipodi:namedview
     id="base"
     pagecolor="#ffffff"
     bordercolor="#666666"
     borderopacity="1.0"
     inkscape:pageopacity="0.0"
     inkscape:pageshadow="2"
     inkscape:zoom="1.2882863"
     inkscape:cx="328.98601"
     inkscape:cy="114.65357"
     inkscape:document-units="px"
     inkscape:current-layer="layer1"
     showgrid="false"
     inkscape:window-width="1440"
     inkscape:window-height="876"
     inkscape:window-x="0"
     inkscape:window-y="24"
     inkscape:window-maximized="1"
     fit-margin-top="10"
     fit-margin-left="10"
     fit-margin-right="10"
     fit-margin-bottom="10" />
  <metadata
     id="metadata7">
    <rdf:RDF>
      <cc:Work
         rdf:about="">
        <dc:format>image/svg+xml</dc:format>
        <dc:type
           rdf:resource="http://purl.org/dc/dcmitype/StillImage" />
        <dc:title></dc:title>
      </cc:Work>
    </rdf:RDF>
  </metadata>
  <g
     inkscape:label="Calque 1"
     inkscape:groupmode="layer"
     id="layer1"
     transform="translate(-10.363451,-13.620021)">
    <g
       id="ico_marron">
      <g
         id="g7702">
        <g
           transform="matrix(0.98219284,0,0,0.98219284,-275.4975,-2028.3076)"
           id="g6989"
           clip-path="url(#clipPath6997)">
          <g
             style="fill:#241c1c;stroke:none"
             id="layer1-5"
             inkscape:label="Layer 1"
             transform="matrix(-0.14303565,-0.04291281,-0.04316635,0.14388073,449.62007,2094.8803)">
            <path
               id="path5217-1-2"
               sodipodi:nodetypes="cccccccccccccscccc"
               style="fill:#241c1c;stroke:none;stroke-width:47.81180954"
               inkscape:connector-curvature="0"
               d="m 207.42,570.16 -25.888,35.057 -4.48,1.0466 -45.304,1.5692 -67.208,-63.834 c -7.8886,-9.0059 -1.0468,-14.141 1.4944,-20.406 l 89.104,-121.91 c 24.005,-19.729 37.272,-15.854 51.276,-13.604 l 55.259,-47.614 c 2.6597,-3.2129 70.498,-23.482 59.741,5.2323 l -38.831,106.74 -17.923,28.778 c 51.267,70.94 100.85,144.74 162.3,198.3 2.9543,-7.9271 120.21,122.5 167.84,184.29 37.162,48.204 64.896,68.193 63.155,70.001 66.649,30.553 -16.324,142.83 -49.287,71.682 -79.66,-87.02 -159.31,-175.03 -238.97,-267.9 -41.41,-62.48 -97.01,-117.5 -162.29,-167.44 z" />
          </g>
          <path
             style="fill:#483737;stroke:none"
             sodipodi:nodetypes="ccccccccccccccccc"
             id="path4"
             inkscape:connector-curvature="0"
             d="m 381.23083,2134.1954 -8.82502,8.8237 -0.29642,4.205 -24.04739,34.348 -4.47127,-1.8066 -1.65844,2.3689 c 1.0656,6.0408 -5.44936,10.3045 -8.4698,10.8373 l -13.68216,19.5428 c 0.888,5.0342 7.4023,9.5948 12.43639,8.7068 l 13.68213,-19.5429 c -0.53278,-3.0204 1.24447,-10.6009 7.2854,-11.6665 l 1.65844,-2.3688 -3.22746,-3.5833 24.04741,-34.348 3.84966,-1.7173 5.27175,-11.3113 z" />
        </g>
        <path
           id="rect6955"
           style="opacity:1;fill:#916f6f;fill-opacity:0.99038463;fill-rule:evenodd;stroke:#241c1c;stroke-width:1.81299996;stroke-linecap:round;stroke-linejoin:round;stroke-miterlimit:4;stroke-dasharray:none;stroke-dashoffset:0;stroke-opacity:1"
           d="m 68.634792,55.863062 55.853848,0 c 8.65714,0 15.6266,6.96944 15.6266,15.62659 l 0,55.854058 c 0,8.65715 -6.96946,15.62659 -15.6266,15.62659 l -55.853848,0 c -8.65714,0 -15.6266,-6.96944 -15.6266,-15.62659 l 0,-55.854058 c 0,-8.65715 6.96946,-15.62659 15.6266,-15.62659 z m -4.86161,-5.90347 66.966098,0 c 8.65713,0 15.62659,6.96944 15.62659,15.62659 l 0,66.966098 c 0,8.65715 -6.96946,15.62659 -15.62659,15.62659 l -66.966098,0 c -8.65714,0 -15.62659,-6.96944 -15.62659,-15.62659 l 0,-66.966098 c 0,-8.65715 6.96945,-15.62659 15.62659,-15.62659 z"
           inkscape:connector-curvature="0" />
      </g>
    </g>
    <g
       id="ico_gris">
      <g
         style="fill:#666666;fill-opacity:1"
         transform="matrix(0.98219284,0,0,0.98219284,-276.94107,-1904.1606)"
         id="g7034"
         clip-path="url(#clipPath6997)">
        <g
           style="fill:#666666;fill-opacity:1;stroke:none"
           id="g7036"
           inkscape:label="Layer 1"
           transform="matrix(-0.14303565,-0.04291281,-0.04316635,0.14388073,449.62007,2094.8803)">
          <path
             id="path7038"
             sodipodi:nodetypes="cccccccccccccscccc"
             style="fill:#666666;fill-opacity:1;stroke:none;stroke-width:47.81180954"
             inkscape:connector-curvature="0"
             d="m 207.42,570.16 -25.888,35.057 -4.48,1.0466 -45.304,1.5692 -67.208,-63.834 c -7.8886,-9.0059 -1.0468,-14.141 1.4944,-20.406 l 89.104,-121.91 c 24.005,-19.729 37.272,-15.854 51.276,-13.604 l 55.259,-47.614 c 2.6597,-3.2129 70.498,-23.482 59.741,5.2323 l -38.831,106.74 -17.923,28.778 c 51.267,70.94 100.85,144.74 162.3,198.3 2.9543,-7.9271 120.21,122.5 167.84,184.29 37.162,48.204 64.896,68.193 63.155,70.001 66.649,30.553 -16.324,142.83 -49.287,71.682 -79.66,-87.02 -159.31,-175.03 -238.97,-267.9 -41.41,-62.48 -97.01,-117.5 -162.29,-167.44 z" />
        </g>
        <path
           style="fill:#666666;fill-opacity:1;stroke:none"
           sodipodi:nodetypes="ccccccccccccccccc"
           id="path7040"
           inkscape:connector-curvature="0"
           d="m 381.23083,2134.1954 -8.82502,8.8237 -0.29642,4.205 -24.04739,34.348 -4.47127,-1.8066 -1.65844,2.3689 c 1.0656,6.0408 -5.44936,10.3045 -8.4698,10.8373 l -13.68216,19.5428 c 0.888,5.0342 7.4023,9.5948 12.43639,8.7068 l 13.68213,-19.5429 c -0.53278,-3.0204 1.24447,-10.6009 7.2854,-11.6665 l 1.65844,-2.3688 -3.22746,-3.5833 24.04741,-34.348 3.84966,-1.7173 5.27175,-11.3113 z" />
      </g>
      <path
         id="path7042"
         style="opacity:1;fill:#666666;fill-opacity:1;fill-rule:evenodd;stroke:#241c1c;stroke-width:1.81299996;stroke-linecap:round;stroke-linejoin:round;stroke-miterlimit:4;stroke-dasharray:none;stroke-dashoffset:0;stroke-opacity:1"
         d="m 67.191222,180.01004 55.853848,0 c 8.65714,0 15.6266,6.96944 15.6266,15.62659 l 0,55.85406 c 0,8.65715 -6.96946,15.62659 -15.6266,15.62659 l -55.853848,0 c -8.65714,0 -15.6266,-6.96944 -15.6266,-15.62659 l 0,-55.85406 c 0,-8.65715 6.96946,-15.62659 15.6266,-15.62659 z m -4.86161,-5.90347 66.966098,0 c 8.65713,0 15.62659,6.96944 15.62659,15.62659 l 0,66.9661 c 0,8.65715 -6.96946,15.62659 -15.62659,15.62659 l -66.966098,0 c -8.65714,0 -15.62659,-6.96944 -15.62659,-15.62659 l 0,-66.9661 c 0,-8.65715 6.96945,-15.62659 15.62659,-15.62659 z"
         inkscape:connector-curvature="0" />
    </g>
    <g
       id="ico_bleu">
      <g
         transform="translate(-9.0223253,0)"
         id="g7709">
        <g
           id="g7693"
           clip-path="url(#clipPath7698)">
          <g
             transform="matrix(-0.14048859,-0.04214865,-0.04239768,0.14131862,296.03737,29.268831)"
             inkscape:label="Layer 1"
             id="g7586"
             style="fill:#1d1c24;fill-opacity:1;stroke:none">
            <path
               d="m 207.42,570.16 -25.888,35.057 -4.48,1.0466 -45.304,1.5692 -67.208,-63.834 c -7.8886,-9.0059 -1.0468,-14.141 1.4944,-20.406 l 89.104,-121.91 c 24.005,-19.729 37.272,-15.854 51.276,-13.604 l 55.259,-47.614 c 2.6597,-3.2129 70.498,-23.482 59.741,5.2323 l -38.831,106.74 -17.923,28.778 c 51.267,70.94 100.85,144.74 162.3,198.3 2.9543,-7.9271 120.21,122.5 167.84,184.29 37.162,48.204 64.896,68.193 63.155,70.001 66.649,30.553 -16.324,142.83 -49.287,71.682 -79.66,-87.02 -159.31,-175.03 -238.97,-267.9 -41.41,-62.48 -97.01,-117.5 -162.29,-167.44 z"
               inkscape:connector-curvature="0"
               style="fill:#1d1c24;fill-opacity:1;stroke:none;stroke-width:47.81180954"
               sodipodi:nodetypes="cccccccccccccscccc"
               id="path7588" />
          </g>
          <path
             d="m 228.86595,67.883841 -8.66787,8.666575 -0.29114,4.130121 -23.61918,33.736363 -4.39165,-1.77443 -1.6289,2.32671 c 1.04662,5.93323 -5.35233,10.12101 -8.31898,10.64432 l -13.43852,19.1948 c 0.87219,4.94456 7.27049,9.42394 12.21493,8.55176 l 13.43849,-19.1949 c -0.52329,-2.96661 1.22231,-10.41213 7.15567,-11.45875 l 1.62891,-2.32662 -3.16999,-3.51949 23.6192,-33.736362 3.7811,-1.68672 5.17788,-11.109878 z"
             inkscape:connector-curvature="0"
             id="path7590"
             sodipodi:nodetypes="ccccccccccccccccc"
             style="fill:#383748;fill-opacity:1;stroke:none" />
        </g>
        <path
           inkscape:connector-curvature="0"
           d="m 198.55605,55.863062 55.85385,0 c 8.65714,0 15.6266,6.96944 15.6266,15.62659 l 0,55.854058 c 0,8.65715 -6.96946,15.62659 -15.6266,15.62659 l -55.85385,0 c -8.65714,0 -15.6266,-6.96944 -15.6266,-15.62659 l 0,-55.854058 c 0,-8.65715 6.96946,-15.62659 15.6266,-15.62659 z m -4.86161,-5.90347 66.9661,0 c 8.65713,0 15.62659,6.96944 15.62659,15.62659 l 0,66.966098 c 0,8.65715 -6.96946,15.62659 -15.62659,15.62659 l -66.9661,0 c -8.65714,0 -15.62659,-6.96944 -15.62659,-15.62659 l 0,-66.966098 c 0,-8.65715 6.96945,-15.62659 15.62659,-15.62659 z"
           style="opacity:1;fill:#716f91;fill-opacity:0.99038463;fill-rule:evenodd;stroke:#241c1c;stroke-width:1.81299996;stroke-linecap:round;stroke-linejoin:round;stroke-miterlimit:4;stroke-dasharray:none;stroke-dashoffset:0;stroke-opacity:1"
           id="path7592" />
      </g>
    </g>
    <g
       id="ico_jaune">
      <g
         transform="translate(-6.496069,0)"
         id="g7716">
        <g
           id="g7677"
           clip-path="url(#clipPath7684)">
          <g
             style="fill:#c4b800;fill-opacity:1;stroke:none"
             id="g7596"
             inkscape:label="Layer 1"
             transform="matrix(-0.14048859,-0.04214865,-0.04239768,0.14131862,414.41008,29.268831)">
            <path
               id="path7598"
               sodipodi:nodetypes="cccccccccccccscccc"
               style="fill:#c4b800;fill-opacity:1;stroke:none;stroke-width:47.81180954"
               inkscape:connector-curvature="0"
               d="m 207.42,570.16 -25.888,35.057 -4.48,1.0466 -45.304,1.5692 -67.208,-63.834 c -7.8886,-9.0059 -1.0468,-14.141 1.4944,-20.406 l 89.104,-121.91 c 24.005,-19.729 37.272,-15.854 51.276,-13.604 l 55.259,-47.614 c 2.6597,-3.2129 70.498,-23.482 59.741,5.2323 l -38.831,106.74 -17.923,28.778 c 51.267,70.94 100.85,144.74 162.3,198.3 2.9543,-7.9271 120.21,122.5 167.84,184.29 37.162,48.204 64.896,68.193 63.155,70.001 66.649,30.553 -16.324,142.83 -49.287,71.682 -79.66,-87.02 -159.31,-175.03 -238.97,-267.9 -41.41,-62.48 -97.01,-117.5 -162.29,-167.44 z" />
          </g>
          <path
             style="fill:#fff513;fill-opacity:1;stroke:none"
             sodipodi:nodetypes="ccccccccccccccccc"
             id="path7600"
             inkscape:connector-curvature="0"
             d="m 347.23865,67.883841 -8.66787,8.666575 -0.29114,4.130121 -23.61917,33.736363 -4.39165,-1.77443 -1.62891,2.32671 c 1.04662,5.93323 -5.35232,10.12101 -8.31898,10.64432 l -13.43852,19.1948 c 0.87219,4.94456 7.27049,9.42394 12.21494,8.55176 l 13.43849,-19.1949 c -0.5233,-2.96661 1.22231,-10.41213 7.15566,-11.45875 l 1.62891,-2.32662 -3.16999,-3.51949 23.6192,-33.736362 3.78111,-1.68672 5.17787,-11.109878 z" />
        </g>
        <path
           id="path7602"
           style="opacity:1;fill:#fff557;fill-opacity:0.99038463;fill-rule:evenodd;stroke:#241c1c;stroke-width:1.81299996;stroke-linecap:round;stroke-linejoin:round;stroke-miterlimit:4;stroke-dasharray:none;stroke-dashoffset:0;stroke-opacity:1"
           d="m 316.92875,55.863062 55.85385,0 c 8.65714,0 15.6266,6.96944 15.6266,15.62659 l 0,55.854058 c 0,8.65715 -6.96946,15.62659 -15.6266,15.62659 l -55.85385,0 c -8.65714,0 -15.6266,-6.96944 -15.6266,-15.62659 l 0,-55.854058 c 0,-8.65715 6.96946,-15.62659 15.6266,-15.62659 z m -4.86161,-5.90347 66.9661,0 c 8.65713,0 15.62659,6.96944 15.62659,15.62659 l 0,66.966098 c 0,8.65715 -6.96946,15.62659 -15.62659,15.62659 l -66.9661,0 c -8.65714,0 -15.62659,-6.96944 -15.62659,-15.62659 l 0,-66.966098 c 0,-8.65715 6.96945,-15.62659 15.62659,-15.62659 z"
           inkscape:connector-curvature="0" />
      </g>
    </g>
    <g
       id="ico_vert">
      <g
         transform="translate(-6.8569527,0)"
         id="g7723">
        <g
           id="g7662"
           clip-path="url(#clipPath7670)">
          <g
             transform="matrix(-0.14048859,-0.04214865,-0.04239768,0.14131862,535.66992,29.268831)"
             inkscape:label="Layer 1"
             id="g7606"
             style="fill:#1c241d;fill-opacity:1;stroke:none">
            <path
               d="m 207.42,570.16 -25.888,35.057 -4.48,1.0466 -45.304,1.5692 -67.208,-63.834 c -7.8886,-9.0059 -1.0468,-14.141 1.4944,-20.406 l 89.104,-121.91 c 24.005,-19.729 37.272,-15.854 51.276,-13.604 l 55.259,-47.614 c 2.6597,-3.2129 70.498,-23.482 59.741,5.2323 l -38.831,106.74 -17.923,28.778 c 51.267,70.94 100.85,144.74 162.3,198.3 2.9543,-7.9271 120.21,122.5 167.84,184.29 37.162,48.204 64.896,68.193 63.155,70.001 66.649,30.553 -16.324,142.83 -49.287,71.682 -79.66,-87.02 -159.31,-175.03 -238.97,-267.9 -41.41,-62.48 -97.01,-117.5 -162.29,-167.44 z"
               inkscape:connector-curvature="0"
               style="fill:#1c241d;fill-opacity:1;stroke:none;stroke-width:47.81180954"
               sodipodi:nodetypes="cccccccccccccscccc"
               id="path7608" />
          </g>
          <g
             id="g7659">
            <path
               style="fill:#374838;fill-opacity:1;stroke:none"
               sodipodi:nodetypes="ccccccccccccccccc"
               id="path7610"
               inkscape:connector-curvature="0"
               d="m 468.4985,67.883841 -8.66787,8.666575 -0.29115,4.130121 -23.61917,33.736363 -4.39165,-1.77443 -1.62891,2.32671 c 1.04663,5.93323 -5.35232,10.12101 -8.31897,10.64432 l -13.43852,19.1948 c 0.87218,4.94456 7.27048,9.42394 12.21493,8.55176 l 13.43849,-19.1949 c -0.52329,-2.96661 1.22231,-10.41213 7.15567,-11.45875 l 1.62891,-2.32662 -3.16999,-3.51949 23.61919,-33.736362 3.78111,-1.68672 5.17787,-11.109878 z" />
          </g>
        </g>
        <path
           inkscape:connector-curvature="0"
           d="m 438.18859,55.863062 55.85385,0 c 8.65714,0 15.6266,6.96944 15.6266,15.62659 l 0,55.854058 c 0,8.65715 -6.96946,15.62659 -15.6266,15.62659 l -55.85385,0 c -8.65714,0 -15.6266,-6.96944 -15.6266,-15.62659 l 0,-55.854058 c 0,-8.65715 6.96946,-15.62659 15.6266,-15.62659 z m -4.86161,-5.90347 66.9661,0 c 8.65713,0 15.62659,6.96944 15.62659,15.62659 l 0,66.966098 c 0,8.65715 -6.96946,15.62659 -15.62659,15.62659 l -66.9661,0 c -8.65714,0 -15.62659,-6.96944 -15.62659,-15.62659 l 0,-66.966098 c 0,-8.65715 6.96945,-15.62659 15.62659,-15.62659 z"
           style="opacity:1;fill:#6f9171;fill-opacity:0.99038463;fill-rule:evenodd;stroke:#241c1c;stroke-width:1.81299996;stroke-linecap:round;stroke-linejoin:round;stroke-miterlimit:4;stroke-dasharray:none;stroke-dashoffset:0;stroke-opacity:1"
           id="path7612" />
      </g>
    </g>
    <g
       id="ico_rouge">
      <g
         transform="translate(-1.6908745e-5,0)"
         id="g7731">
        <g
           transform="matrix(-0.14048859,-0.04214865,-0.04239768,0.14131862,649.71191,29.268831)"
           inkscape:label="Layer 1"
           id="g7616"
           style="fill:#800000;stroke:none"
           clip-path="url(#clipPath7633)">
          <path
             d="m 207.42,570.16 -25.888,35.057 -4.48,1.0466 -45.304,1.5692 -67.208,-63.834 c -7.8886,-9.0059 -1.0468,-14.141 1.4944,-20.406 l 89.104,-121.91 c 24.005,-19.729 37.272,-15.854 51.276,-13.604 l 55.259,-47.614 c 2.6597,-3.2129 70.498,-23.482 59.741,5.2323 l -38.831,106.74 -17.923,28.778 c 51.267,70.94 100.85,144.74 162.3,198.3 2.9543,-7.9271 120.21,122.5 167.84,184.29 37.162,48.204 64.896,68.193 63.155,70.001 66.649,30.553 -16.324,142.83 -49.287,71.682 -79.66,-87.02 -159.31,-175.03 -238.97,-267.9 -41.41,-62.48 -97.01,-117.5 -162.29,-167.44 z"
             inkscape:connector-curvature="0"
             style="fill:#800000;stroke:none;stroke-width:47.81180954"
             sodipodi:nodetypes="cccccccccccccscccc"
             id="path7618" />
        </g>
        <path
           d="m 582.54049,67.883841 -8.66787,8.666575 -0.29114,4.130121 -23.61918,33.736363 -4.39165,-1.77443 -1.6289,2.32671 c 1.04662,5.93323 -5.35233,10.12101 -8.31898,10.64432 l -13.43852,19.1948 c 0.87219,4.94456 7.27049,9.42394 12.21493,8.55176 l 13.43849,-19.1949 c -0.52329,-2.96661 1.22231,-10.41213 7.15567,-11.45875 l 1.62891,-2.32662 -3.16999,-3.51949 23.6192,-33.736362 3.7811,-1.68672 5.17788,-11.109878 z"
           inkscape:connector-curvature="0"
           id="path7620"
           sodipodi:nodetypes="ccccccccccccccccc"
           style="fill:#ad2323;fill-opacity:1;stroke:none"
           clip-path="url(#clipPath7629)" />
        <path
           id="path7622"
           style="opacity:1;fill:#862525;fill-opacity:1;fill-rule:evenodd;stroke:#241c1c;stroke-width:1.81299996;stroke-linecap:round;stroke-linejoin:round;stroke-miterlimit:4;stroke-dasharray:none;stroke-dashoffset:0;stroke-opacity:1"
           d="m 552.23058,55.863062 55.85385,0 c 8.65714,0 15.6266,6.96944 15.6266,15.62659 l 0,55.854058 c 0,8.65715 -6.96946,15.62659 -15.6266,15.62659 l -55.85385,0 c -8.65714,0 -15.6266,-6.96944 -15.6266,-15.62659 l 0,-55.854058 c 0,-8.65715 6.96946,-15.62659 15.6266,-15.62659 z m -4.86161,-5.90347 66.9661,0 c 8.65713,0 15.62659,6.96944 15.62659,15.62659 l 0,66.966098 c 0,8.65715 -6.96946,15.62659 -15.62659,15.62659 l -66.9661,0 c -8.65714,0 -15.62659,-6.96944 -15.62659,-15.62659 l 0,-66.966098 c 0,-8.65715 6.96945,-15.62659 15.62659,-15.62659 z"
           inkscape:connector-curvature="0" />
      </g>
    </g>
  </g>
</svg>
